<svg class="animated" id="freepik_stories-arcade-machine" xmlns="http://www.w3.org/2000/svg" viewBox="0 0 500 500" version="1.1" xmlns:xlink="http://www.w3.org/1999/xlink" xmlns:svgjs="http://svgjs.com/svgjs"><style>svg#freepik_stories-arcade-machine:not(.animated) .animable {opacity: 0;}svg#freepik_stories-arcade-machine.animated #freepik--Poster--inject-190 {animation: 1s 1 forwards cubic-bezier(.36,-0.01,.5,1.38) fadeIn;animation-delay: 0s;}svg#freepik_stories-arcade-machine.animated #freepik--Floor--inject-190 {animation: 1s 1 forwards cubic-bezier(.36,-0.01,.5,1.38) lightSpeedRight;animation-delay: 0s;}svg#freepik_stories-arcade-machine.animated #freepik--Plant--inject-190 {animation: 1s 1 forwards cubic-bezier(.36,-0.01,.5,1.38) fadeIn;animation-delay: 0s;}svg#freepik_stories-arcade-machine.animated #freepik--arcade-machine--inject-190 {animation: 1s 1 forwards cubic-bezier(.36,-0.01,.5,1.38) lightSpeedRight;animation-delay: 0s;}svg#freepik_stories-arcade-machine.animated #freepik--Character--inject-190 {animation: 1s 1 forwards cubic-bezier(.36,-0.01,.5,1.38) slideLeft;animation-delay: 0s;}            @keyframes fadeIn {                0% {                    opacity: 0;                }                100% {                    opacity: 1;                }            }                    @keyframes lightSpeedRight {              from {                transform: translate3d(50%, 0, 0) skewX(-20deg);                opacity: 0;              }              60% {                transform: skewX(10deg);                opacity: 1;              }              80% {                transform: skewX(-2deg);              }              to {                opacity: 1;                transform: translate3d(0, 0, 0);              }            }                    @keyframes slideLeft {                0% {                    opacity: 0;                    transform: translateX(-30px);                }                100% {                    opacity: 1;                    transform: translateX(0);                }            }        </style><g id="freepik--Poster--inject-190" class="animable" style="transform-origin: 105.92px 129.5px;"><g id="elv047fsl3gpb"><g style="opacity: 0.3; transform-origin: 105.92px 129.5px;" class="animable"><rect x="41.07" y="35.7" width="129.7" height="187.6" style="fill: none; stroke: rgb(38, 50, 56); stroke-linecap: round; stroke-linejoin: round; transform-origin: 105.92px 129.5px;" id="el42ylfmgla7d" class="animable"></rect><polygon points="124.51 161.16 111.56 161.16 111.56 148.21 89.98 148.21 89.98 161.16 77.03 161.16 77.03 182.74 89.98 182.74 89.98 195.69 111.56 195.69 111.56 182.74 124.51 182.74 124.51 161.16" style="fill: none; stroke: rgb(38, 50, 56); stroke-linecap: round; stroke-linejoin: round; transform-origin: 100.77px 171.95px;" id="elpqk4gxbl7z8" class="animable"></polygon><polygon points="117.2 164.48 108.24 164.48 108.24 155.51 93.3 155.51 93.3 164.48 84.33 164.48 84.33 179.42 93.3 179.42 93.3 188.38 108.24 188.38 108.24 179.42 117.2 179.42 117.2 164.48" style="fill: none; stroke: rgb(38, 50, 56); stroke-linecap: round; stroke-linejoin: round; transform-origin: 100.765px 171.945px;" id="elfi3ec33yywi" class="animable"></polygon><path d="M63.13,94a9.74,9.74,0,0,1-5.83-1.55,8.4,8.4,0,0,1-3.08-4.39,21.72,21.72,0,0,1-.92-6.63V69.26a21.67,21.67,0,0,1,.94-6.74,8.07,8.07,0,0,1,3.3-4.35,11.68,11.68,0,0,1,6.4-1.53,12.47,12.47,0,0,1,6.17,1.3,7.42,7.42,0,0,1,3.26,3.69,14.64,14.64,0,0,1,1,5.65v2.11H67.13V66.83A15.81,15.81,0,0,0,67,64.3a3,3,0,0,0-.83-1.73A2.94,2.94,0,0,0,64,61.94a2.72,2.72,0,0,0-2.15.76,3.72,3.72,0,0,0-.86,2,16.83,16.83,0,0,0-.18,2.53V83.31a12.65,12.65,0,0,0,.27,2.74,3.49,3.49,0,0,0,1,1.88,3.09,3.09,0,0,0,2.14.68,3,3,0,0,0,2.15-.72,3.85,3.85,0,0,0,1.06-2,12.58,12.58,0,0,0,.29-2.81V79.27H64.21V74.78H74.45V93.45H69.6l-.45-3.27A6.68,6.68,0,0,1,67,92.92,6.31,6.31,0,0,1,63.13,94Z" style="fill: none; stroke: rgb(38, 50, 56); stroke-linecap: round; stroke-linejoin: round; transform-origin: 63.873px 75.3198px;" id="el0s3punxfmmw" class="animable"></path><path d="M77.72,93.45l7-36.36H93l7,36.36H93.12l-1.3-8H86.07l-1.39,8Zm9-12.52H91.1L88.9,66.25Z" style="fill: none; stroke: rgb(38, 50, 56); stroke-linecap: round; stroke-linejoin: round; transform-origin: 88.86px 75.27px;" id="elhruopgvq37e" class="animable"></path><path d="M103.54,93.45l.62-36.36H112L116.51,80l4.8-22.94h7.59l.63,36.36h-5.39l-.58-24.64-4.63,24.64h-4.62l-4.85-24.82L109,93.45Z" style="fill: none; stroke: rgb(38, 50, 56); stroke-linecap: round; stroke-linejoin: round; transform-origin: 116.535px 75.255px;" id="el6qvd9zu9jis" class="animable"></path><path d="M134.47,93.45V57.09h15.84v5.12h-8.43v9.65h6.5V77h-6.5V88.43h8.52v5Z" style="fill: none; stroke: rgb(38, 50, 56); stroke-linecap: round; stroke-linejoin: round; transform-origin: 142.435px 75.27px;" id="elph9g60r921p" class="animable"></path><path d="M88.77,139.82a12,12,0,0,1-6.33-1.44,8,8,0,0,1-3.35-4.1,18.21,18.21,0,0,1-1-6.4V114.32a18,18,0,0,1,1-6.37,7.75,7.75,0,0,1,3.35-4,12.27,12.27,0,0,1,6.33-1.4,12.3,12.3,0,0,1,6.39,1.42,7.81,7.81,0,0,1,3.37,4,17.81,17.81,0,0,1,1,6.35v13.56a18.21,18.21,0,0,1-1,6.4,7.86,7.86,0,0,1-3.37,4.1A12.2,12.2,0,0,1,88.77,139.82Zm0-5.34a3,3,0,0,0,2.11-.65,3.29,3.29,0,0,0,.89-1.75,11.81,11.81,0,0,0,.23-2.36v-17.2a11.43,11.43,0,0,0-.23-2.33,3.26,3.26,0,0,0-.89-1.73,3,3,0,0,0-2.11-.65,2.82,2.82,0,0,0-2,.65,3.27,3.27,0,0,0-.9,1.73,11.43,11.43,0,0,0-.23,2.33v17.2a12.64,12.64,0,0,0,.21,2.36,3.14,3.14,0,0,0,.87,1.75A2.9,2.9,0,0,0,88.77,134.48Z" style="fill: none; stroke: rgb(38, 50, 56); stroke-linecap: round; stroke-linejoin: round; transform-origin: 88.8102px 121.185px;" id="elnoa18mfjhma" class="animable"></path><path d="M104.48,139.33V103h5.16l8.08,19V103h6.11v36.37h-4.94l-8.08-20.12v20.12Z" style="fill: none; stroke: rgb(38, 50, 56); stroke-linecap: round; stroke-linejoin: round; transform-origin: 114.155px 121.185px;" id="el2gw6jrchihp" class="animable"></path><g id="elutrlnkkbpne"><circle cx="58.93" cy="131.15" r="12.36" style="fill: none; stroke: rgb(38, 50, 56); stroke-linecap: round; stroke-linejoin: round; transform-origin: 58.93px 131.15px; transform: rotate(-45deg);" class="animable"></circle></g><circle cx="155.19" cy="51.06" r="12.62" style="fill: none; stroke: rgb(38, 50, 56); stroke-linecap: round; stroke-linejoin: round; transform-origin: 155.19px 51.06px;" id="el9y8gcnwz3xm" class="animable"></circle><circle cx="150.07" cy="113.25" r="6.26" style="fill: none; stroke: rgb(38, 50, 56); stroke-linecap: round; stroke-linejoin: round; transform-origin: 150.07px 113.25px;" id="el9nzdfbszawg" class="animable"></circle><path d="M85.38,48a3.13,3.13,0,1,0-3.13,3.13A3.13,3.13,0,0,0,85.38,48Z" style="fill: none; stroke: rgb(38, 50, 56); stroke-linecap: round; stroke-linejoin: round; transform-origin: 82.25px 48px;" id="elqqh483hndu9" class="animable"></path><path d="M94.77,48a3.13,3.13,0,1,0-3.13,3.13A3.13,3.13,0,0,0,94.77,48Z" style="fill: none; stroke: rgb(38, 50, 56); stroke-linecap: round; stroke-linejoin: round; transform-origin: 91.64px 48px;" id="elce2syzkr4il" class="animable"></path><path d="M104.16,48A3.13,3.13,0,1,0,101,51.16,3.13,3.13,0,0,0,104.16,48Z" style="fill: none; stroke: rgb(38, 50, 56); stroke-linecap: round; stroke-linejoin: round; transform-origin: 101.03px 48.0301px;" id="elnklcgox045" class="animable"></path><path d="M78.33,214H57.46A3.91,3.91,0,0,1,53.55,210h0a3.91,3.91,0,0,1,3.91-3.92H78.33A3.92,3.92,0,0,1,82.25,210h0A3.92,3.92,0,0,1,78.33,214Z" style="fill: none; stroke: rgb(38, 50, 56); stroke-linecap: round; stroke-linejoin: round; transform-origin: 67.8999px 210.04px;" id="ell362dq7lr2m" class="animable"></path><path d="M160,130H139.12A3.92,3.92,0,0,1,135.2,126h0a3.92,3.92,0,0,1,3.92-3.91H160A3.91,3.91,0,0,1,163.9,126h0A3.91,3.91,0,0,1,160,130Z" style="fill: none; stroke: rgb(38, 50, 56); stroke-linecap: round; stroke-linejoin: round; transform-origin: 149.55px 126.045px;" id="elpxvzg228vmj" class="animable"></path></g></g></g><g id="freepik--Floor--inject-190" class="animable" style="transform-origin: 257.585px 440.39px;"><line x1="49.41" y1="440.39" x2="465.76" y2="440.39" style="fill: none; stroke: rgb(38, 50, 56); stroke-linecap: round; stroke-linejoin: round; transform-origin: 257.585px 440.39px;" id="eloyik0wna8g" class="animable"></line></g><g id="freepik--Plant--inject-190" class="animable" style="transform-origin: 78.0073px 343.972px;"><path d="M87.27,311.54h0a.1.1,0,0,0,0-.13.1.1,0,0,0-.13.06,129.81,129.81,0,0,0-6.82,21.36A202.19,202.19,0,0,0,76.51,355l-.53,5.6c-.08.93-.18,1.86-.25,2.8l-.15,2.81c-.09,1.87-.2,3.74-.25,5.62l0,5.63.06,2.81c0,.94.11,1.87.17,2.81.14,1.87.26,3.74.43,5.6.36,3.73.92,7.44,1.5,11.14a.08.08,0,0,0,.09.08.09.09,0,0,0,.1-.1h0c0-1.88-.09-3.74-.13-5.61s-.22-3.72-.19-5.59,0-3.72-.06-5.58l0-2.79,0-2.79,0-5.58.15-5.57.06-2.79c0-.93.11-1.85.16-2.78l.34-5.57A198.57,198.57,0,0,1,81.23,333,130.13,130.13,0,0,1,87.27,311.54Z" style="fill: rgb(38, 50, 56); transform-origin: 81.312px 355.652px;" id="el4e9wdeodmgn" class="animable"></path><path d="M88.07,340.69a.1.1,0,0,0-.06-.12.1.1,0,0,0-.13.06,135,135,0,0,0-4,14.16,132.34,132.34,0,0,0-2.34,14.55c-.5,4.88-1,9.77-1.11,14.68A122.59,122.59,0,0,0,81,398.73a.1.1,0,0,0,.2,0c.57-4.89.91-9.76,1.25-14.63s.39-9.75.71-14.62A128.89,128.89,0,0,1,84.88,355,132.67,132.67,0,0,1,88.07,340.69Z" style="fill: rgb(38, 50, 56); transform-origin: 84.2379px 369.697px;" id="els2hyk2ggkxc" class="animable"></path><path d="M104.23,351a.09.09,0,0,0-.13,0,49.28,49.28,0,0,0-10.81,9.42,44.06,44.06,0,0,0-4.23,5.88l-.87,1.64-.68,1.7a16.77,16.77,0,0,0-.59,1.73c-.17.58-.37,1.15-.53,1.74a69.86,69.86,0,0,0-2.23,14.26,82,82,0,0,0,.53,14.36.11.11,0,0,0,.1.08.09.09,0,0,0,.1-.09l1.23-14.21a125.81,125.81,0,0,1,1.8-14c.13-.57.3-1.13.44-1.7a16,16,0,0,1,.5-1.67l.58-1.65.74-1.55A42.28,42.28,0,0,1,94.05,361a48.72,48.72,0,0,1,10.15-9.87h0A.09.09,0,0,0,104.23,351Z" style="fill: rgb(38, 50, 56); transform-origin: 94.1501px 376.391px;" id="el9lrrcg452x6" class="animable"></path><path d="M96.41,369.21a15.77,15.77,0,0,0-4.92,5.91,34.83,34.83,0,0,0-2.75,7.24c-.19.62-.35,1.24-.48,1.88l-.45,1.89a33.09,33.09,0,0,0-.47,3.83c0,1.29-.06,2.58,0,3.87a33.37,33.37,0,0,0,.51,3.84.11.11,0,0,0,.07.08.1.1,0,0,0,.12-.08,34.15,34.15,0,0,0,.68-3.78c.2-1.25.4-2.5.55-3.74s.34-2.48.44-3.73.27-2.49.53-3.7a34.42,34.42,0,0,1,2.11-7.18,15.88,15.88,0,0,1,4.13-6.16h0a.09.09,0,0,0,0-.13A.1.1,0,0,0,96.41,369.21Z" style="fill: rgb(38, 50, 56); transform-origin: 91.9105px 383.481px;" id="el8ko756y4a7t" class="animable"></path><path d="M73.74,383.45c-.53-6.31-1.57-12.56-2.56-18.8S69.11,352.18,68,346s-2.42-12.4-3.76-18.57a.1.1,0,0,0-.12-.08.09.09,0,0,0-.07.11c1.08,6.22,2,12.46,3,18.71s1.83,12.48,2.62,18.74,1.38,12.54,2.16,18.79l2.31,18.78a.09.09,0,0,0,.09.09.11.11,0,0,0,.11-.09c.07-1.59.07-3.17.11-4.76s-.07-3.16-.09-4.75C74.25,389.76,74,386.61,73.74,383.45Z" style="fill: rgb(38, 50, 56); transform-origin: 69.253px 364.959px;" id="el7oufxmn4reo" class="animable"></path><path d="M70,383.36c-.34-2.5-.8-5-1.28-7.46l-.88-3.69c-.29-1.22-.57-2.46-.93-3.67a105.16,105.16,0,0,0-4.82-14.35l-.76-1.73-.84-1.7c-.53-1.15-1.18-2.24-1.79-3.34a28,28,0,0,0-4.56-6,.1.1,0,0,0-.13,0,.11.11,0,0,0,0,.14h0a28,28,0,0,1,4.17,6.18c.55,1.12,1.13,2.22,1.6,3.38l.74,1.72.66,1.75a103.6,103.6,0,0,1,4.2,14.36c.57,2.42,1,4.9,1.43,7.35l.59,3.7c.21,1.23.47,2.45.65,3.68.39,2.47.84,4.93,1.28,7.4s.83,4.95,1.35,7.42a.1.1,0,0,0,.1.08.1.1,0,0,0,.1-.1q0-3.78-.18-7.56C70.52,388.37,70.22,385.87,70,383.36Z" style="fill: rgb(38, 50, 56); transform-origin: 62.4324px 369.988px;" id="el4fqpil7be9" class="animable"></path><path d="M64.73,383.68c-1.17-3.31-2.52-6.55-4-9.73a88.19,88.19,0,0,0-5-9.21.1.1,0,0,0-.13,0,.1.1,0,0,0,0,.13,86,86,0,0,1,4.29,9.5c1.28,3.23,2.44,6.51,3.41,9.83s1.69,6.71,2.57,10.05,1.69,6.71,2.71,10.09a.1.1,0,0,0,.2,0,50.75,50.75,0,0,0-1-10.5A64.74,64.74,0,0,0,64.73,383.68Z" style="fill: rgb(38, 50, 56); transform-origin: 62.1791px 384.578px;" id="el4ztxo8gdb17" class="animable"></path><path d="M64.52,394.71a22.73,22.73,0,0,0-2.78-5.82,24.51,24.51,0,0,0-4-5,17.94,17.94,0,0,0-2.58-1.94,10.34,10.34,0,0,0-2.91-1.32.1.1,0,0,0-.12.06.1.1,0,0,0,0,.13h0A14.58,14.58,0,0,1,57,384.55a22.85,22.85,0,0,1,3.37,5.11c1,1.81,1.46,3.81,2.29,5.68.37,1,.73,1.92,1.16,2.88a24.46,24.46,0,0,0,1.27,2.91h0a.09.09,0,0,0,.08.05.1.1,0,0,0,.11-.1,24.76,24.76,0,0,0-.12-3.22C65,396.81,64.77,395.76,64.52,394.71Z" style="fill: rgb(38, 50, 56); transform-origin: 58.6978px 390.903px;" id="elaw4qa0lwddl" class="animable"></path><path d="M64.91,336.42A18,18,0,0,1,52.18,322.9c-2.39-11.14,5.3-6.37-1.59-23.87s-5.3-21.47-2.92-26.51,3.72-3.45,5.84,3.18,9.81,17,12.72,36.33S64.91,336.42,64.91,336.42Z" style="fill: rgb(146, 221, 227); transform-origin: 56.4437px 302.986px;" id="elfglwm26mrlq" class="animable"></path><path d="M85.32,317.59s-6.89-2.38-7.16-15.37,5-10.34,5.84-26.52,1.85-27.57,4.77-27.84,10.61,8,13.26,26-3.45,30-8.75,35.26S85.32,317.59,85.32,317.59Z" style="fill: rgb(146, 221, 227); transform-origin: 90.41px 282.722px;" id="el7qclotxr6m" class="animable"></path><path d="M61.2,352.06s-1.6-9.54-4.78-14.05-10.07-8.48-14.58-17.23-9.54-13-9.28-.53,5.83,18.82,12.73,23.06S61.2,352.06,61.2,352.06Z" style="fill: rgb(146, 221, 227); transform-origin: 46.8752px 332.259px;" id="el7nxm0x8ay9q" class="animable"></path><path d="M58.28,368.5s-6.36-12.19-15.64-21.21-16.71-13.52-14.06-9,5.84,4.24,10.34,12.19,3.19,13.79,9.55,18.3S58.28,368.5,58.28,368.5Z" style="fill: rgb(146, 221, 227); transform-origin: 43.1586px 353.614px;" id="elcybmb50alr" class="animable"></path><path d="M57.48,384.14c-.26-.79-.53-6.62-9.54-11.4s-17.5-2.91-16.44-.53,6.63,6.37,12.2,8.75S57.48,384.14,57.48,384.14Z" style="fill: rgb(146, 221, 227); transform-origin: 44.4451px 376.954px;" id="eldcllci6d1rg" class="animable"></path><path d="M84.79,352.59s-4-5-1.85-15.64,6.89-7.95,12.19-13.52,4.25-6.37,9.55-12.2,10.07-9,12.19-6.63-1.06,9.81-4.24,14.06S104.41,325,102,330.32s-1.33,13.79-7.43,17.77S84.79,352.59,84.79,352.59Z" style="fill: rgb(146, 221, 227); transform-origin: 99.9308px 328.199px;" id="eld8ll4qr6c7" class="animable"></path><path d="M98.05,355.51s9.54-10.87,16.44-18.83,9.54-14.05,9.81-8.74,2.38,9.54-3.18,16.43S98.05,355.51,98.05,355.51Z" style="fill: rgb(146, 221, 227); transform-origin: 111.483px 340.726px;" id="elarvofnhkx0v" class="animable"></path><path d="M93,373s-.26-4.24,14.85-14.05,21.48-11.67,19.89-7.69-8.22,8-15.38,15.11S93,373,93,373Z" style="fill: rgb(146, 221, 227); transform-origin: 110.489px 361.155px;" id="elpx0nybb7ptn" class="animable"></path><path d="M65.54,335.29s-3.55-19-7.26-32.54S52.18,281,52.18,281" style="fill: none; stroke: rgb(38, 50, 56); stroke-linecap: round; stroke-linejoin: round; transform-origin: 58.86px 308.145px;" id="elvrailkas3c" class="animable"></path><path d="M84.71,317.79s6.45-20.61,8.57-33.07S93,263,92,257.41" style="fill: none; stroke: rgb(38, 50, 56); stroke-linecap: round; stroke-linejoin: round; transform-origin: 89.4192px 287.6px;" id="el2g29zc4r9rr" class="animable"></path><path d="M60.36,351.66a100.33,100.33,0,0,0-9.77-13.91c-5.83-6.9-10.34-10.61-13-17.24" style="fill: none; stroke: rgb(38, 50, 56); stroke-linecap: round; stroke-linejoin: round; transform-origin: 48.975px 336.085px;" id="elwv930gyg3n" class="animable"></path><path d="M84.79,352.59s2.12-12.72,7.16-19.35,15.11-17,19.09-23.6" style="fill: none; stroke: rgb(38, 50, 56); stroke-linecap: round; stroke-linejoin: round; transform-origin: 97.915px 331.115px;" id="elslxaidtqver" class="animable"></path><path d="M56.86,383.86s-8.92-5.81-15.29-9" style="fill: none; stroke: rgb(38, 50, 56); stroke-linecap: round; stroke-linejoin: round; transform-origin: 49.215px 379.36px;" id="elxmhirhlat6j" class="animable"></path><path d="M86.18,440.09H67.76s-16.67-37-9.22-46.14c5.85-7.12,31-7.12,36.86,0C102.86,403.05,86.18,440.09,86.18,440.09Z" style="fill: rgb(38, 50, 56); stroke: rgb(38, 50, 56); stroke-linecap: round; stroke-linejoin: round; transform-origin: 76.9718px 414.35px;" id="els8922h845fg" class="animable"></path></g><g id="freepik--arcade-machine--inject-190" class="animable" style="transform-origin: 301.23px 251.55px;"><path d="M184.12,248.5l30.48-20.28,39-112.19L240.71,65.52c-.45-1.8,4.85-3.35,6.56-2.63l50.86,22.65V440.33H206.68V279.43Z" style="fill: rgb(38, 50, 56); stroke: rgb(38, 50, 56); stroke-linecap: round; stroke-linejoin: round; transform-origin: 241.125px 251.52px;" id="elkcgueu4tjq" class="animable"></path><path d="M187.63,248.5l30.48-20.28,39-112.19-12.9-50.51a2.24,2.24,0,0,1,3-2.63l54.37,22.65V440.33H210.19V279.43Z" style="fill: rgb(146, 221, 227); stroke: rgb(38, 50, 56); stroke-linecap: round; stroke-linejoin: round; transform-origin: 244.605px 251.531px;" id="elxiiqqx8f7t8" class="animable"></path><polygon points="261.21 113.33 277.46 116.71 373.69 116.71 374.58 113.33 261.21 113.33" style="fill: rgb(156, 156, 156); stroke: rgb(38, 50, 56); stroke-linecap: round; stroke-linejoin: round; transform-origin: 317.895px 115.02px;" id="eltsrc0n8klws" class="animable"></polygon><polygon points="222.15 228.85 277.46 116.71 378.85 116.71 334.67 228.22 222.15 228.85" style="fill: rgb(38, 50, 56); stroke: rgb(38, 50, 56); stroke-linecap: round; stroke-linejoin: round; transform-origin: 300.5px 172.78px;" id="elcfr265f1zxw" class="animable"></polygon><polygon points="242.07 210.37 282.13 129.13 355.57 129.13 323.57 209.9 242.07 210.37" style="fill: rgb(120, 120, 120); transform-origin: 298.82px 169.75px;" id="elz336zd7ws5h" class="animable"></polygon><polygon points="255.67 182.79 242.07 210.37 323.57 209.9 334.31 182.79 255.67 182.79" style="fill: rgb(89, 89, 89); transform-origin: 288.19px 196.58px;" id="elq73odp424il" class="animable"></polygon><polygon points="347.24 150.17 355.57 129.13 282.13 129.13 271.76 150.17 347.24 150.17" style="fill: rgb(150, 150, 150); transform-origin: 313.665px 139.65px;" id="el8h9rbmlvwnm" class="animable"></polygon><rect x="291.4" y="165.72" width="27.44" height="3.66" rx="1.58" style="fill: rgb(38, 50, 56); transform-origin: 305.12px 167.55px;" id="eluu7chmo498" class="animable"></rect><path d="M286.83,143.6l-10.8,22a1.9,1.9,0,0,1-2.45.94h0a1.78,1.78,0,0,1-.78-2.44l10.8-22a1.9,1.9,0,0,1,2.45-.94h0A1.79,1.79,0,0,1,286.83,143.6Z" style="fill: rgb(38, 50, 56); transform-origin: 279.813px 153.85px;" id="el73gzspm2ldh" class="animable"></path><path d="M326.46,130.19l-18.9,36.42a1.88,1.88,0,0,1-2.44.94h0a1.79,1.79,0,0,1-.78-2.44l18.89-36.42a1.9,1.9,0,0,1,2.45-.94h0A1.78,1.78,0,0,1,326.46,130.19Z" style="fill: rgb(38, 50, 56); transform-origin: 315.402px 147.651px;" id="elh6c9reoxmhf" class="animable"></path><path d="M333.55,165.94l-9,22.74a1.89,1.89,0,0,1-2.36,1.13h0a1.79,1.79,0,0,1-1-2.37l9-22.74a1.89,1.89,0,0,1,2.36-1.13h0A1.79,1.79,0,0,1,333.55,165.94Z" style="fill: rgb(38, 50, 56); transform-origin: 327.37px 176.69px;" id="el80jegbtxnjm" class="animable"></path><rect x="276.16" y="157.79" width="27.44" height="3.66" rx="1.58" style="fill: rgb(38, 50, 56); transform-origin: 289.88px 159.62px;" id="el0y23my6ywue" class="animable"></rect><rect x="301.46" y="175.17" width="27.44" height="3.66" rx="1.58" style="fill: rgb(38, 50, 56); transform-origin: 315.18px 177px;" id="els1y99pgc7f9" class="animable"></rect><path d="M302.45,159.89a2.1,2.1,0,1,0-2.09,2.09A2.1,2.1,0,0,0,302.45,159.89Z" style="fill: rgb(146, 221, 227); transform-origin: 300.35px 159.88px;" id="elhmpv4sv97vd" class="animable"></path><path d="M285.85,214.47a2.1,2.1,0,1,0-2.1,2.1A2.1,2.1,0,0,0,285.85,214.47Z" style="fill: rgb(146, 221, 227); transform-origin: 283.75px 214.47px;" id="el5sxhbb1avek" class="animable"></path><path d="M298.61,214.47a2.1,2.1,0,1,0-2.1,2.1A2.1,2.1,0,0,0,298.61,214.47Z" style="fill: rgb(146, 221, 227); transform-origin: 296.51px 214.47px;" id="elt955wv50m0k" class="animable"></path><path d="M311.37,214.47a2.1,2.1,0,1,0-2.09,2.1A2.1,2.1,0,0,0,311.37,214.47Z" style="fill: rgb(146, 221, 227); transform-origin: 309.27px 214.47px;" id="el74joylzppgj" class="animable"></path><path d="M331.3,171.51a2.1,2.1,0,1,0-2.1,2.1A2.1,2.1,0,0,0,331.3,171.51Z" style="fill: rgb(255, 255, 255); transform-origin: 329.2px 171.51px;" id="elata3cwf3hg" class="animable"></path><path d="M265.2,198.1c-.63-.87-2.05-.87-3.18,0l-.74.58-.41-.58a1.66,1.66,0,0,0-1.39-.65,3,3,0,0,0-1.79.65c-1.13.88-1.55,2.31-.93,3.19l.41.57,2.25,3.18,4.11-3.18.74-.57a3.21,3.21,0,0,0,1.12-1.59A1.85,1.85,0,0,0,265.2,198.1Z" style="fill: rgb(146, 221, 227); transform-origin: 260.982px 201.244px;" id="eln1q57h1empj" class="animable"></path><path d="M275.87,198.1c-.63-.87-2.05-.87-3.18,0l-.74.58-.41-.58a1.66,1.66,0,0,0-1.39-.65,3,3,0,0,0-1.79.65c-1.13.88-1.55,2.31-.93,3.19l.41.57,2.25,3.18,4.11-3.18.74-.57a3.21,3.21,0,0,0,1.12-1.59A1.85,1.85,0,0,0,275.87,198.1Z" style="fill: rgb(146, 221, 227); transform-origin: 271.652px 201.244px;" id="elydblumj7u4g" class="animable"></path><line x1="333.99" y1="123.88" x2="344.25" y2="123.88" style="fill: none; stroke: rgb(255, 255, 255); stroke-miterlimit: 10; transform-origin: 339.12px 123.88px;" id="elyf4nzy3fwjh" class="animable"></line><line x1="289.06" y1="124.23" x2="298.26" y2="124.23" style="fill: none; stroke: rgb(255, 255, 255); stroke-miterlimit: 10; transform-origin: 293.66px 124.23px;" id="el8nvlxfq5gzh" class="animable"></line><polygon points="222.15 228.85 334.67 228.22 304.18 248.5 191.3 249.14 222.15 228.85" style="fill: rgb(146, 221, 227); stroke: rgb(38, 50, 56); stroke-linecap: round; stroke-linejoin: round; transform-origin: 262.985px 238.68px;" id="elxojaff7m48" class="animable"></polygon><path d="M300.26,236.38c0,1.32-2.15,2.39-4.79,2.39s-4.79-1.07-4.79-2.39,2.14-2.4,4.79-2.4S300.26,235.06,300.26,236.38Z" style="fill: rgb(146, 221, 227); stroke: rgb(38, 50, 56); stroke-linecap: round; stroke-linejoin: round; transform-origin: 295.47px 236.375px;" id="ela8qtixofy4d" class="animable"></path><path d="M283.05,239.09c0,1.32-2.14,2.39-4.79,2.39s-4.79-1.07-4.79-2.39,2.15-2.4,4.79-2.4S283.05,237.76,283.05,239.09Z" style="fill: rgb(146, 221, 227); stroke: rgb(38, 50, 56); stroke-linecap: round; stroke-linejoin: round; transform-origin: 278.26px 239.085px;" id="elqnlxwqm6db" class="animable"></path><path d="M315.16,234c0,1.33-2.15,2.4-4.79,2.4s-4.79-1.07-4.79-2.4,2.14-2.39,4.79-2.39S315.16,232.66,315.16,234Z" style="fill: rgb(38, 50, 56); stroke: rgb(38, 50, 56); stroke-linecap: round; stroke-linejoin: round; transform-origin: 310.37px 234.005px;" id="el0ozs4fm0mzd" class="animable"></path><rect x="209.82" y="279.43" width="113.42" height="160.96" style="fill: rgb(38, 50, 56); stroke: rgb(38, 50, 56); stroke-linecap: round; stroke-linejoin: round; transform-origin: 266.53px 359.91px;" id="elols8sm6czx" class="animable"></rect><rect x="245.9" y="304.4" width="41.24" height="58.53" style="fill: rgb(89, 89, 89); transform-origin: 266.52px 333.665px;" id="eljchzx68qjv" class="animable"></rect><polygon points="300.67 248.5 187.26 248.5 209.81 279.43 323.23 279.43 300.67 248.5" style="fill: rgb(38, 50, 56); stroke: rgb(38, 50, 56); stroke-linecap: round; stroke-linejoin: round; transform-origin: 255.245px 263.965px;" id="el1lay7479d2k" class="animable"></polygon><polygon points="248.47 67.47 359.93 67.47 374.58 113.33 261.21 113.33 248.47 67.47" style="fill: rgb(146, 221, 227); stroke: rgb(38, 50, 56); stroke-linecap: round; stroke-linejoin: round; transform-origin: 311.525px 90.4px;" id="elcrysij99c9m" class="animable"></polygon><path d="M278.68,80h-4.56l-3.93,20.2h3.87l.78-4.44H278l.72,4.44h3.82Zm-3.47,13.24,1.2-8.16,1.22,8.16Z" style="fill: rgb(255, 255, 255); transform-origin: 276.365px 90.1px;" id="ells7o2cnq7kq" class="animable"></path><path d="M293.77,90.36a3.61,3.61,0,0,0,1.5-1.14,4.21,4.21,0,0,0,.76-1.66,10.53,10.53,0,0,0,.21-2.22c0-.23,0-.45,0-.66a6.68,6.68,0,0,0-.26-1.51,3.65,3.65,0,0,0-.5-1.07,4,4,0,0,0-2.24-1.63A11.63,11.63,0,0,0,289.7,80h-5.23v20.2h4.11V91.05H290l2.31,9.16h4.22Zm-1.61-3.06a1.82,1.82,0,0,1-.81,1,3.16,3.16,0,0,1-1.58.32h-1.19V82.8H290a2.12,2.12,0,0,1,1.9.74,3.6,3.6,0,0,1,.52,2.13A4.79,4.79,0,0,1,292.16,87.3Z" style="fill: rgb(255, 255, 255); transform-origin: 290.5px 90.1036px;" id="eltlhlvbfvrtc" class="animable"></path><path d="M310.13,87.29v-1.7a8.55,8.55,0,0,0-.51-3.07,3.85,3.85,0,0,0-1.75-2,6.63,6.63,0,0,0-3.4-.73,6.77,6.77,0,0,0-3.56.82,4.46,4.46,0,0,0-1.83,2.34,8.31,8.31,0,0,0-.34,1.41,12.44,12.44,0,0,0-.18,2.19v7.26a10.9,10.9,0,0,0,.52,3.51,4.48,4.48,0,0,0,1.83,2.35,4.16,4.16,0,0,0,.73.37,7.21,7.21,0,0,0,2.83.49,6.37,6.37,0,0,0,3.44-.79,4.19,4.19,0,0,0,1.72-2.15,8.86,8.86,0,0,0,.5-3.13V92.76h-4v2a11.67,11.67,0,0,1-.09,1.37,1.9,1.9,0,0,1-.43,1,1.44,1.44,0,0,1-1.14.38,1.71,1.71,0,0,1-1.11-.33,1.75,1.75,0,0,1-.52-1,7.26,7.26,0,0,1-.14-1.49V85.54a10.16,10.16,0,0,1,.1-1.41,1.84,1.84,0,0,1,.48-1,1.54,1.54,0,0,1,1.19-.4,1.45,1.45,0,0,1,1.16.39,1.76,1.76,0,0,1,.42,1c0,.41.08.85.08,1.31v1.9Z" style="fill: rgb(255, 255, 255); transform-origin: 304.345px 90.16px;" id="el0yzi79fe35gl" class="animable"></path><path d="M320.14,80h-4.57l-3.91,20.2h3.86l.77-4.44h3.2l.72,4.44H324Zm-3.47,13.24,1.2-8.16,1.22,8.16Z" style="fill: rgb(255, 255, 255); transform-origin: 317.83px 90.1px;" id="el57su3p62kpd" class="animable"></path><path d="M336.9,82.74a3.88,3.88,0,0,0-2-2.07,9.86,9.86,0,0,0-4-.66h-4.93v20.2h5a9.28,9.28,0,0,0,3.93-.68,4,4,0,0,0,2-2.14,9.68,9.68,0,0,0,.6-3.69V86.34A9.26,9.26,0,0,0,336.9,82.74Zm-3.62,11.4a9.7,9.7,0,0,1-.12,1.76,1.67,1.67,0,0,1-.61,1.08,2.81,2.81,0,0,1-1.63.36H330V82.9h.85a3,3,0,0,1,1.58.3,1.49,1.49,0,0,1,.65.93,7.05,7.05,0,0,1,.16,1.69Z" style="fill: rgb(255, 255, 255); transform-origin: 331.738px 90.1101px;" id="elpq1pcgngowi" class="animable"></path><path d="M344.34,97.42V91.08H348V88.22h-3.61V82.84H349V80h-8.81v20.2h8.86V97.42Z" style="fill: rgb(255, 255, 255); transform-origin: 344.62px 90.1px;" id="elssdad4hsvs" class="animable"></path><path d="M300.67,248.5l30.49-20.28,39-112.19L357.27,65.52c-.46-1.8,4.84-3.35,6.55-2.63l46,20.64a7.86,7.86,0,0,1,4.84,7.26V440.33H323.23V279.43Z" style="fill: rgb(38, 50, 56); stroke: rgb(38, 50, 56); stroke-linecap: round; stroke-linejoin: round; transform-origin: 357.665px 251.52px;" id="elbp4s0i7mo7p" class="animable"></path><path d="M418.2,90.79V440.33H326.74V279.43l-22.56-30.92,30.49-20.29.3-.86,2.36-6.8L373.46,116.7l.23-.67-.69-2.7-6.31-24.71v-.06l-5.9-23a2.25,2.25,0,0,1,2-2.8h0a1.57,1.57,0,0,1,.48,0,.88.88,0,0,1,.26.06,1.23,1.23,0,0,1,.25.08l49.53,20.64A7.86,7.86,0,0,1,418.2,90.79Z" style="fill: rgb(146, 221, 227); transform-origin: 361.19px 251.536px;" id="elvipg4sgrp2d" class="animable"></path><path d="M376.94,251.54a3.49,3.49,0,0,1-3.69-.06l-33.74-21.92a3.47,3.47,0,0,1,3.78-5.83L377,245.65a3.47,3.47,0,0,1,1,4.81A3.6,3.6,0,0,1,376.94,251.54Z" style="fill: rgb(38, 50, 56); transform-origin: 358.248px 237.605px;" id="el6b6c706mz1x" class="animable"></path><path d="M418.32,188.25l-.54-5.93a3.47,3.47,0,0,0-6.91.63l3.75,41.26a3.46,3.46,0,0,0,3.7,3.14Z" style="fill: rgb(38, 50, 56); transform-origin: 414.591px 203.296px;" id="elah0jeck0abe" class="animable"></path><path d="M418.32,213.35a49,49,0,1,0,0,97.63Z" style="fill: rgb(255, 255, 255); transform-origin: 391.693px 262.165px;" id="elosq1b4nle3c" class="animable"></path><path d="M418.32,233.08l-39.4,23.78a8,8,0,0,0-2.71,11l9.61,15.94a8,8,0,0,0,11,2.71l21.52-13Z" style="fill: rgb(38, 50, 56); transform-origin: 396.695px 260.375px;" id="eloie8phiujj" class="animable"></path><path d="M418.32,176.36a7.45,7.45,0,1,0-.14,12.66l.14-.1Z" style="fill: rgb(255, 255, 255); transform-origin: 412.596px 182.647px;" id="elj0gvfde8dgh" class="animable"></path><path d="M349.57,227.81a7.46,7.46,0,0,1-3.4,4.67,7.85,7.85,0,0,1-1.24.6,7.46,7.46,0,0,1-9-3.14,7.23,7.23,0,0,1-1-2.58l2.36-6.8a6.85,6.85,0,0,1,1.14-.84,7.45,7.45,0,0,1,11.1,8.09Z" style="fill: rgb(255, 255, 255); transform-origin: 342.33px 226.1px;" id="el22j1rt267oj" class="animable"></path><path d="M400.47,263.74a6.39,6.39,0,1,1-8.77-2.16A6.38,6.38,0,0,1,400.47,263.74Z" style="fill: rgb(255, 255, 255); transform-origin: 395.004px 267.048px;" id="eluzuy5fk3iv" class="animable"></path><path d="M418.32,284.06,408.53,290a2.4,2.4,0,0,0,2.48,4.1l7.31-4.41Z" style="fill: rgb(38, 50, 56); transform-origin: 412.905px 289.219px;" id="elqebvemomvd" class="animable"></path><path d="M358.37,344.32a1.92,1.92,0,0,1-2.06,0l-18.85-12.24a1.94,1.94,0,0,1,2.11-3.26L358.42,341a2,2,0,0,1,.57,2.69A1.87,1.87,0,0,1,358.37,344.32Z" style="fill: rgb(38, 50, 56); transform-origin: 347.931px 336.566px;" id="elqpi5ffb7fx" class="animable"></path><path d="M382.35,330.54a1.77,1.77,0,0,1-.83.27,1.93,1.93,0,0,1-2.1-1.75L377.32,306a1.94,1.94,0,1,1,3.86-.35l2.1,23A1.93,1.93,0,0,1,382.35,330.54Z" style="fill: rgb(38, 50, 56); transform-origin: 380.298px 317.307px;" id="el36usp84iegu" class="animable"></path><g id="ela2ytcecenk"><circle cx="379.31" cy="350.25" r="27.36" style="fill: rgb(255, 255, 255); transform-origin: 379.31px 350.25px; transform: rotate(-79.15deg);" class="animable"></circle></g><g id="elk9o7xmvdj3c"><rect x="357.88" y="338.3" width="38.36" height="19.33" rx="6.9" style="fill: rgb(38, 50, 56); transform-origin: 377.06px 347.965px; transform: rotate(-31.11deg);" class="animable"></rect></g><path d="M382.81,303.68a4.17,4.17,0,1,0-1.41,5.72A4.16,4.16,0,0,0,382.81,303.68Z" style="fill: rgb(255, 255, 255); transform-origin: 379.241px 305.834px;" id="el4nej3a7b95t" class="animable"></path><path d="M342.59,328a4.16,4.16,0,1,0-1.42,5.72A4.16,4.16,0,0,0,342.59,328Z" style="fill: rgb(255, 255, 255); transform-origin: 339.03px 330.153px;" id="elqr9cmwit5wq" class="animable"></path><path d="M389.08,340.54a3.57,3.57,0,1,1-4.9-1.21A3.57,3.57,0,0,1,389.08,340.54Z" style="fill: rgb(255, 255, 255); transform-origin: 386.025px 342.386px;" id="eldkhmmzmi77" class="animable"></path><path d="M371.51,351.14a3.57,3.57,0,1,1-4.9-1.21A3.57,3.57,0,0,1,371.51,351.14Z" style="fill: rgb(255, 255, 255); transform-origin: 368.455px 352.987px;" id="elx3cq2ros1xe" class="animable"></path><g id="elmr76vpx7cgb"><rect x="373.8" y="359.99" width="24.38" height="2.68" rx="1.16" style="fill: rgb(38, 50, 56); transform-origin: 385.99px 361.33px; transform: rotate(-31.1593deg);" class="animable"></rect></g><path d="M304.18,248.5l30.49-20.28,39-112.19L360.78,65.52a2.24,2.24,0,0,1,3-2.63l49.54,20.64a7.86,7.86,0,0,1,4.84,7.26V440.33H326.74V279.43Z" style="fill: none; stroke: rgb(38, 50, 56); stroke-linecap: round; stroke-linejoin: round; transform-origin: 361.17px 251.531px;" id="elasqzunrsv09" class="animable"></path><path d="M418.2,107.45V140.3l-3.51,4.28-32.48,39.59a.2.2,0,0,0-.06.07l-7.34,8.94A10.43,10.43,0,0,1,358.69,180L366,171l.08-.09,48.58-59.2Z" style="fill: rgb(38, 50, 56); transform-origin: 387.459px 151.992px;" id="elokw0bjg44p" class="animable"></path><path d="M366.74,197a10.41,10.41,0,0,1-8.05-17l7.34-9a10.42,10.42,0,0,1,16.12,13.22l-7.35,9A10.4,10.4,0,0,1,366.74,197Z" style="fill: rgb(255, 255, 255); transform-origin: 370.426px 182.093px;" id="elf6gt3dr0c2d" class="animable"></path><path d="M418.2,374.72v29.47l-3.51,3.51-9.43,9.42a1.71,1.71,0,0,1-.18.2l-11.85,11.84a10.42,10.42,0,0,1-14.73-14.75l11.83-11.83c.13-.13.26-.26.39-.37l24-24Z" style="fill: rgb(38, 50, 56); transform-origin: 396.822px 403.463px;" id="elmkz88ed193" class="animable"></path><path d="M385.87,432.21a10.43,10.43,0,0,1-7.37-17.8l11.83-11.83a10.42,10.42,0,0,1,14.74,14.74l-11.83,11.83A10.4,10.4,0,0,1,385.87,432.21Z" style="fill: rgb(255, 255, 255); transform-origin: 391.784px 415.871px;" id="eltza1fpfy1f8" class="animable"></path><rect x="251.19" y="339.96" width="10.04" height="14.67" style="fill: rgb(199, 199, 199); transform-origin: 256.21px 347.295px;" id="elhpmf8kee1s" class="animable"></rect><rect x="268.17" y="339.96" width="10.04" height="14.67" style="fill: rgb(199, 199, 199); transform-origin: 273.19px 347.295px;" id="elx8b9c5wfei" class="animable"></rect><rect x="251.19" y="314.87" width="10.04" height="14.67" style="fill: rgb(145, 145, 145); transform-origin: 256.21px 322.205px;" id="el8tusjznoxb5" class="animable"></rect><rect x="268.17" y="314.87" width="10.04" height="14.67" style="fill: rgb(145, 145, 145); transform-origin: 273.19px 322.205px;" id="elhidfdbjgt38" class="animable"></rect><polygon points="278.21 314.87 274.21 329.55 264.88 329.55 268.17 314.87 278.21 314.87" style="fill: rgb(146, 221, 227); transform-origin: 271.545px 322.21px;" id="elzl71b4twz7e" class="animable"></polygon><polygon points="260.56 314.87 256.56 329.55 247.24 329.55 250.53 314.87 260.56 314.87" style="fill: rgb(146, 221, 227); transform-origin: 253.9px 322.21px;" id="el7y00stenty3" class="animable"></polygon></g><g id="freepik--Character--inject-190" class="animable" style="transform-origin: 209.116px 276.675px;"><path d="M203.76,425.78s10.48,7.05,15.82,7.48,8.77,1.71,8.12,4.06-5.13,5.13-13.68,6-13-.64-19.23-.86-11.55,2.57-15.18-.64-3.21-5.56-3-7.69,4.7-1.93,12-4.28S203.76,425.78,203.76,425.78Z" style="fill: rgb(255, 255, 255); stroke: rgb(38, 50, 56); stroke-linecap: round; stroke-linejoin: round; transform-origin: 202.128px 434.684px;" id="elvu5t7gjd6d" class="animable"></path><path d="M227.7,437.32a1.81,1.81,0,0,0-.41-1.77c-3.09,2.67-10.61,6.23-15.62,6.05-6-.22-11.54-1.71-22.87-1.5l-10.66.21a12.78,12.78,0,0,0,1.47,1.5c3.63,3.21,9,.43,15.17.64s10.69,1.71,19.24.86S227.06,439.67,227.7,437.32Z" style="fill: rgb(255, 255, 255); stroke: rgb(38, 50, 56); stroke-linecap: round; stroke-linejoin: round; transform-origin: 202.96px 439.559px;" id="elxu5k1l2jg8n" class="animable"></path><path d="M197.68,315.51s16.37,39.84,15.44,46.32-11.73,33.66-12.66,38.29.62,13.28.62,13.28a4.85,4.85,0,0,1,3.09,4c.31,3.09,1.54,9.26,1.54,9.26a44.66,44.66,0,0,1-13,6.49A81.3,81.3,0,0,1,177,435.64c-1.23,0-2.47-4.94-3.08-8.34s5.24-10.81,7.41-15.13S189,387.77,192.74,381s9-26.87,8.34-34.59-6.48-23.16-6.48-28.1S197.68,312.42,197.68,315.51Z" style="fill: rgb(156, 156, 156); stroke: rgb(38, 50, 56); stroke-linecap: round; stroke-linejoin: round; transform-origin: 193.517px 374.687px;" id="elq1z679jaiom" class="animable"></path><path d="M176.19,424.07s3.85,1.92,11.11.43,10.48-4.92,6.63-4.71a39.43,39.43,0,0,0-8.76,1.93" style="fill: none; stroke: rgb(38, 50, 56); stroke-linecap: round; stroke-linejoin: round; transform-origin: 185.88px 422.424px;" id="ely4a6rg4legs" class="animable"></path><path d="M179.18,430.81s11.33,7.06,14.54,7.27,5.34,2.78,4.27,6.2-9.19,5.13-21.37,5.34-25.44-.85-28.86-1.49-6.63-.64-6.84-2.78a46.59,46.59,0,0,1,0-5.77s5.34-1.5,10-3.42,18.17-4.49,20.53-5.13S179.18,430.81,179.18,430.81Z" style="fill: rgb(255, 255, 255); stroke: rgb(38, 50, 56); stroke-linecap: round; stroke-linejoin: round; transform-origin: 169.55px 440.161px;" id="eltmf7jfrnktl" class="animable"></path><path d="M175.55,447.7c-12.31.18-29.43-3.06-34.71-3.77,0,.51,0,1,.08,1.42.21,2.14,3.42,2.14,6.84,2.78s16.67,1.71,28.86,1.49,20.3-1.92,21.37-5.34a4.83,4.83,0,0,0-.27-3.89,25,25,0,0,1-1.87,2.82C193.29,446.63,190.3,447.49,175.55,447.7Z" style="fill: rgb(255, 255, 255); stroke: rgb(38, 50, 56); stroke-linecap: round; stroke-linejoin: round; transform-origin: 169.558px 445.02px;" id="elbz8nuj7015p" class="animable"></path><path d="M147.66,308.22s9.57,23.47,9.88,30.57,2.47,17.29,4.63,19.15l2.16,1.85s-6.17,4.32-5.87,9.88-6.17,21.93-9.88,29.34-8.64,28.41-9.26,32.11.31,11.12.31,11.12,7.41.93,11.42,1.55,9,.92,9,.92l2.47-4.94,2.78,5.25s7.1-2.16,10.5-5.25a61.59,61.59,0,0,0,5.87-6.18l-4.95-7.1S202,369.67,203.55,362s.31-16.37.31-22.54-7.72-35.51-7.72-35.51Z" style="fill: rgb(156, 156, 156); stroke: rgb(38, 50, 56); stroke-linecap: round; stroke-linejoin: round; transform-origin: 171.718px 374.485px;" id="elhl45mzl9url" class="animable"></path><path d="M192.43,326.44s-7.1,1.54-13,3.4a76.3,76.3,0,0,1-14.2,2.47l1.54,6.79s8.65.62,14.83-.62,14.82-3.39,14.82-3.39l-1.85-6.8" style="fill: none; stroke: rgb(38, 50, 56); stroke-linecap: round; stroke-linejoin: round; transform-origin: 180.825px 332.848px;" id="el2x1azcgb352" class="animable"></path><path d="M168.35,341.57s3.39,11.12,3.7,12.35-2.47,5.87-.92,7.41,13,2.17,18.52,1.55,10.5-3.09,10.81-6.18-3.39-16.06-3.39-16.06" style="fill: none; stroke: rgb(38, 50, 56); stroke-linecap: round; stroke-linejoin: round; transform-origin: 184.414px 351.878px;" id="elt1m2qe7afr" class="animable"></path><line x1="175.45" y1="314.09" x2="177.92" y2="326.13" style="fill: none; stroke: rgb(38, 50, 56); stroke-linecap: round; stroke-linejoin: round; transform-origin: 176.685px 320.11px;" id="eltf48ju4jtjc" class="animable"></line><path d="M181,365.35l-15.13,45.08s-11.43,9.58-12,11.74S161.24,433,161.24,433" style="fill: none; stroke: rgb(38, 50, 56); stroke-linecap: round; stroke-linejoin: round; transform-origin: 167.42px 399.175px;" id="elz4zvglteduk" class="animable"></path><path d="M146.73,416.61s29.34-6.79,35.82-17" style="fill: none; stroke: rgb(38, 50, 56); stroke-linecap: round; stroke-linejoin: round; transform-origin: 164.64px 408.11px;" id="elwl2q2vqrnlo" class="animable"></path><path d="M199.32,144s-3.67,2.56-2.93,5.86,6.59,7,4.39,8.43-4,2.2-4,3.3-4,15-7.32,15.39-11.36-2.2-11.36-2.2a21.26,21.26,0,0,0-5.87,11l-25.65-7a14.14,14.14,0,0,0,.37-12.09,68.7,68.7,0,0,0-5.87-10.26s10.27-23.45,29.69-28.22S199.32,144,199.32,144Z" style="fill: rgb(255, 255, 255); stroke: rgb(38, 50, 56); stroke-linecap: round; stroke-linejoin: round; transform-origin: 171.176px 156.636px;" id="elmaxnkn04wi" class="animable"></path><path d="M193.94,165s-6.84-1-7.25-5.44" style="fill: none; stroke: rgb(38, 50, 56); stroke-linecap: round; stroke-linejoin: round; transform-origin: 190.315px 162.28px;" id="el8s8u4cg9trk" class="animable"></path><line x1="188.31" y1="158.77" x2="183.88" y2="161.19" style="fill: none; stroke: rgb(38, 50, 56); stroke-linecap: round; stroke-linejoin: round; transform-origin: 186.095px 159.98px;" id="el0x4e58g91fd" class="animable"></line><path d="M167.77,165.42s5.89,7.75,10.3,9.31c0,0-3.66,4.18-4.26,5.59C173.81,180.32,168.37,171.66,167.77,165.42Z" style="fill: rgb(38, 50, 56); stroke: rgb(38, 50, 56); stroke-linecap: round; stroke-linejoin: round; transform-origin: 172.92px 172.87px;" id="elu4apj9cxhre" class="animable"></path><path d="M138.83,300.5s-.33,8.43,2.36,9.78,6.41,4.38,28.67,2.36,31-7.42,32.38-9.78.68-8.77.68-8.77-19.9,5.73-36.77,5.73S138.83,300.5,138.83,300.5Z" style="fill: rgb(255, 255, 255); stroke: rgb(38, 50, 56); stroke-linecap: round; stroke-linejoin: round; transform-origin: 170.957px 303.702px;" id="el9q8m9s5852s" class="animable"></path><path d="M247.89,226.69l2.93,7.74a13.11,13.11,0,0,1-3,3c-2.45,2-6.36,3.75-9.65,2a9.5,9.5,0,0,1-4.36-4.85s4.92-7,7-8.07S247.89,226.69,247.89,226.69Z" style="fill: rgb(255, 255, 255); stroke: rgb(38, 50, 56); stroke-linecap: round; stroke-linejoin: round; transform-origin: 242.315px 233.113px;" id="elxvcgfi6w10f" class="animable"></path><line x1="245.85" y1="230.22" x2="252.61" y2="243.42" style="fill: rgb(255, 255, 255); stroke: rgb(38, 50, 56); stroke-linecap: round; stroke-linejoin: round; stroke-width: 2px; transform-origin: 249.23px 236.82px;" id="el2x3gqxku884" class="animable"></line><path d="M250.37,226.69s4.57,2.62,3.86,4.46-4,4.47-6.67,4.93-3.45-2.13-2.13-2.36S250.11,229.13,250.37,226.69Z" style="fill: rgb(255, 255, 255); stroke: rgb(38, 50, 56); stroke-linecap: round; stroke-linejoin: round; transform-origin: 249.553px 231.412px;" id="elp8u9qw17zmj" class="animable"></path><path d="M253.79,232.33s1.78,2.15,1,3.69-5.8,4-7.48,3.42.25-3.36.25-3.36S252.55,233.25,253.79,232.33Z" style="fill: rgb(255, 255, 255); stroke: rgb(38, 50, 56); stroke-linecap: round; stroke-linejoin: round; transform-origin: 250.805px 235.928px;" id="elk895531h8h" class="animable"></path><path d="M253.74,237.08a3.37,3.37,0,0,1-.85,3.13c-1.36,1.29-5.75,2.24-6.82,1.2s1.24-2,1.24-2A38.9,38.9,0,0,0,253.74,237.08Z" style="fill: rgb(255, 255, 255); stroke: rgb(38, 50, 56); stroke-linecap: round; stroke-linejoin: round; transform-origin: 249.811px 239.467px;" id="eltgnfkhwu6di" class="animable"></path><path d="M250.37,226.69a6.07,6.07,0,1,0-4.94,7A6.07,6.07,0,0,0,250.37,226.69Z" style="fill: rgb(255, 255, 255); stroke: rgb(38, 50, 56); stroke-linecap: round; stroke-linejoin: round; transform-origin: 244.386px 227.71px;" id="ely7j9az3knd8" class="animable"></path><path d="M229.73,230.05s6.52-7.74,6.89-9.51,4.36-2.48,5.3-3,6.67-4.93,7-2.94.15,4.77-1.95,6.51-6.13,2.1-6.13,2.1,1.81,4.48.83,6.7-7.16,6.05-7.16,6.05Z" style="fill: rgb(255, 255, 255); stroke: rgb(38, 50, 56); stroke-linecap: round; stroke-linejoin: round; transform-origin: 239.39px 225.024px;" id="elb7pt0csyfv" class="animable"></path><path d="M219.59,241.25s-11.73,4.17-16.39,4.63-17.48-2.55-17.48-2.55l.91-10.87,0-5.09a91.21,91.21,0,0,0,13.73,6.2C208,236.26,219.59,241.25,219.59,241.25Z" style="fill: rgb(255, 255, 255); stroke: rgb(38, 50, 56); stroke-linecap: round; stroke-linejoin: round; transform-origin: 202.655px 236.649px;" id="el73teg1sijht" class="animable"></path><path d="M128,212.47s7.76,29.68,8.77,38.11-4.39,47.22-1,50.26,17.54,7.42,36.76,4.72,30-7.08,30.36-11.47-5.06-24.62-7.76-35.08-3.37-29.68-4.72-42.5-1-18.88-5.06-23.27-7.08-5.39-11.13-5.73-14.84,1-22.94,7.42-13.49,14.16-16.86,15.85A15.85,15.85,0,0,1,128,212.47Z" style="fill: rgb(146, 221, 227); stroke: rgb(38, 50, 56); stroke-linecap: round; stroke-linejoin: round; transform-origin: 165.454px 246.933px;" id="eluoggy3xiifk" class="animable"></path><path d="M180,186.5s-4.72-2-7.76-3.38-23.94-6.07-27.32-6.74-11.46-1.35-13.49,1.35-2.7,8.43-2.7,8.43-9.78,11.8-5.39,21.25,7.75,14.84,12.48,13.15,10.79-8.09,20.91-19.56,21.59-11.47,21.59-11.47S183.35,189.53,180,186.5Z" style="fill: rgb(255, 255, 255); stroke: rgb(38, 50, 56); stroke-linecap: round; stroke-linejoin: round; transform-origin: 151.679px 198.323px;" id="elqnem22ci4c" class="animable"></path><path d="M172.69,190.3s9.15-2.68,15.6,4.23,20.25,19.91,22.15,21.34,7.88,5,7.88,5,6.87,2.76,12.65,5,26.44,13.23,28.54,13.61,2.91,1.28,7.44-.39,10.68-3.92,11.77-3.4,8.07,3.95,9.12,4.14,8.68,1.14,8.16,2.23a4.84,4.84,0,0,1-3.43,2.2c-1.34.19-6.16-.13-9.45.68s-5.48,4.54-12.15,5.5S252.55,248,252.55,248s-23.85-2.36-35.06-4.5-41.81-18.17-44.29-18.84-9.16-2.09-9.16-2.09" style="fill: rgb(146, 221, 227); stroke: rgb(38, 50, 56); stroke-linecap: round; stroke-linejoin: round; transform-origin: 230.033px 220.2px;" id="elkf7g9k6g7nj" class="animable"></path><path d="M160,232.34c8.53.13,21.17-4.41,21.17-4.41s-4.43,7.11-11,10.79" style="fill: none; stroke: rgb(38, 50, 56); stroke-linecap: round; stroke-linejoin: round; transform-origin: 170.585px 233.325px;" id="el6vr464c9qag" class="animable"></path><path d="M296,242.06c.52-1.09-7.11-2-8.16-2.23s-8-3.62-9.12-4.14-7.24,1.73-11.77,3.4-5.35.77-7.44.39c-1.78-.32-16.79-8.21-24.9-12,.84,2.92,1.38,6.48.33,9.41a19.86,19.86,0,0,1-6.27,8.34c11.21,1.5,23.88,2.76,23.88,2.76s11.74,3.42,18.42,2.46,8.86-4.69,12.15-5.5,8.11-.49,9.45-.68A4.84,4.84,0,0,0,296,242.06Z" style="fill: rgb(255, 255, 255); stroke: rgb(38, 50, 56); stroke-linecap: round; stroke-linejoin: round; transform-origin: 262.348px 239.05px;" id="el612u0of8as2" class="animable"></path><path d="M161.52,158.27l3.89,12.93s-6,.7-20.19-4.19-18.56-22-15.73-33.23,15.38-28.63,34.5-30,31.88,15.38,35.77,22.72,3.9,16.08,2.48,18.17a45.15,45.15,0,0,1-5.31,5.6l-4.25-6.3s-1.42,6.64-3.19,7.34a22.49,22.49,0,0,1-4.25,1.05l-5-7.34.36,7.69a52.19,52.19,0,0,0-6.38,3.15c-1.41,1-7.43,4.54-7.43,4.54A5.49,5.49,0,0,1,161.52,158.27Z" style="fill: rgb(38, 50, 56); stroke: rgb(38, 50, 56); stroke-linecap: round; stroke-linejoin: round; transform-origin: 165.89px 137.468px;" id="elg1hr7whbe9q" class="animable"></path></g><defs>     <filter id="active" height="200%">         <feMorphology in="SourceAlpha" result="DILATED" operator="dilate" radius="2"></feMorphology>                <feFlood flood-color="#32DFEC" flood-opacity="1" result="PINK"></feFlood>        <feComposite in="PINK" in2="DILATED" operator="in" result="OUTLINE"></feComposite>        <feMerge>            <feMergeNode in="OUTLINE"></feMergeNode>            <feMergeNode in="SourceGraphic"></feMergeNode>        </feMerge>    </filter>    <filter id="hover" height="200%">        <feMorphology in="SourceAlpha" result="DILATED" operator="dilate" radius="2"></feMorphology>                <feFlood flood-color="#ff0000" flood-opacity="0.5" result="PINK"></feFlood>        <feComposite in="PINK" in2="DILATED" operator="in" result="OUTLINE"></feComposite>        <feMerge>            <feMergeNode in="OUTLINE"></feMergeNode>            <feMergeNode in="SourceGraphic"></feMergeNode>        </feMerge>            <feColorMatrix type="matrix" values="0   0   0   0   0                0   1   0   0   0                0   0   0   0   0                0   0   0   1   0 "></feColorMatrix>    </filter></defs></svg>